<svg width="309" height="88" viewBox="0 0 309 88" fill="none" xmlns="http://www.w3.org/2000/svg">
<g filter="url(#filter0_d_41_2)">
<path d="M157.025 7.8291C158.709 7.82912 161.686 8.1066 164.143 8.36816C165.393 8.50127 166.544 8.63373 167.382 8.7334C167.801 8.78323 168.142 8.82534 168.379 8.85449C168.461 8.86461 168.531 8.87292 168.587 8.87988L168.79 8.56152L168.909 8.92578L168.969 8.94043C169.999 9.18909 170.821 9.66074 171.475 10.2646C171.461 10.3358 171.448 10.4102 171.431 10.4873C171.316 10.9988 171.122 11.6886 171.354 12.4727L171.396 12.6045C171.629 13.2534 172.091 13.6721 172.399 13.9873C172.745 14.3415 172.939 14.5932 172.951 14.9951L172.947 15.1133C172.922 15.38 172.779 15.5902 172.54 15.9033C172.285 16.238 171.9 16.7113 171.876 17.415V17.5781C171.908 18.3761 172.381 18.9274 172.808 19.3584C173.299 19.8552 173.719 20.1994 173.952 20.6982L174.037 20.9014C174.208 21.37 174.205 21.7984 174.242 22.3232C174.284 22.9231 174.388 23.5884 175.019 24.2324L175.164 24.3721C175.892 25.039 176.686 25.2137 177.425 25.3232C177.538 25.34 177.648 25.3551 177.757 25.3701C177.778 25.4064 177.801 25.4417 177.822 25.4775C178.478 26.5925 178.901 27.4099 179.37 28.1689L179.512 28.4062C179.833 28.9672 180.094 29.5555 180.197 29.7559C180.352 30.0573 180.404 30.0785 180.42 30.0898C180.469 30.1244 180.703 30.2681 181.445 30.376C182.187 30.4837 183.289 30.5361 184.957 30.5L186.516 30.4668L186.929 31.9707C187.473 33.9541 187.808 35.3649 187.994 36.9707C188.177 38.5514 188.209 40.2687 188.209 42.8525V42.9512C188.193 54.357 185.48 63.3938 179.769 69.7412L179.206 70.3467C173.138 76.6911 165.063 79.7969 155.201 79.7969C146.665 79.7969 139.506 77.3311 133.895 72.2744L133.892 72.2715C131.091 69.7379 128.92 66.3578 127.325 62.2207L127.015 61.3828L127.003 61.3496C125.445 56.7444 124.689 51.4307 124.689 45.4443C124.69 33.4992 127.577 24.0978 133.677 17.582L133.678 17.5811L134.255 16.9805C140.271 10.8689 147.912 7.8291 157.025 7.8291ZM279.484 8.96387L303.677 76.6436L304.632 79.3164H292.221L291.748 77.9854L284.732 58.1973H259.428L250.829 78.1094L250.308 79.3164H244.812L244.895 79.125H233.354L232.772 78.1436L214.537 47.3486H205.293V79.125H193.325V8.82617L195.188 8.69727L197.944 8.5166C204.283 8.12263 209.971 7.92481 215.005 7.9248C223.068 7.9248 229.467 9.25993 233.9 12.2217C238.477 15.2787 240.717 19.9039 240.717 25.7646C240.717 30.4337 239.615 34.6811 237.375 38.4531L237.154 38.8164C235.023 42.2641 231.659 44.6244 227.289 46.0225L245.142 76.1035L245.747 77.125L246.002 76.5312L274.706 9.33105L275.011 8.61719L275.718 8.2959L276.773 7.81641L278.753 6.91699L279.484 8.96387ZM150.078 77.4619C150.312 77.4939 150.547 77.5234 150.784 77.5508L150.078 77.4609C149.844 77.429 149.612 77.3949 149.381 77.3584L150.078 77.4619ZM146.024 76.6406C146.193 76.6868 146.363 76.73 146.533 76.7734C146.339 76.7239 146.145 76.6731 145.953 76.6201L146.024 76.6406ZM143.493 75.8193C143.698 75.8969 143.905 75.9719 144.113 76.0449L143.493 75.8184C143.288 75.7409 143.085 75.6611 142.883 75.5791L143.493 75.8193ZM26.5732 4.37305C33.1419 4.37305 39.7876 5.50112 46.502 7.73926L48.5137 8.41016L47.7266 10.3799L47.3418 11.3398L46.6094 13.1719L44.7676 12.4639C39.1274 10.2946 33.8676 9.23737 28.9736 9.2373C24.2637 9.2373 20.8139 10.2087 18.4082 11.9277L18.1787 12.0967C15.8352 13.8674 14.6534 16.2652 14.6533 19.5244C14.6533 23.3057 16.5319 26.3111 20.874 28.5986C22.9654 29.6428 25.2504 30.6312 27.7314 31.5625C30.4 32.4747 33.0661 33.5163 35.7295 34.6855L36.7412 35.1426C39.0775 36.2271 41.2472 37.4437 43.2461 38.7959C45.7339 40.4788 47.7071 42.799 49.1855 45.6855H49.1846C50.7201 48.6198 51.4209 52.2587 51.4209 56.4854C51.4208 60.7195 50.2534 64.4586 47.8613 67.6035L47.626 67.9062C45.1581 71.0086 42.1145 73.173 38.5107 74.3262L38.499 74.3291L38.4863 74.333C35.1152 75.365 31.2296 75.8613 26.8613 75.8613C18.6453 75.8613 11.508 73.8181 5.55273 69.6426L4 68.5537L5.00488 66.9453L5.48535 66.1768L6.66699 64.2861L8.41895 65.666C10.2963 67.1451 12.784 68.4222 15.9434 69.457C19.1414 70.42 22.3945 70.9004 25.709 70.9004C30.5817 70.9004 34.6022 69.7909 37.8682 67.6709C40.9765 65.6315 42.5254 62.7295 42.5254 58.6924C42.5252 54.3653 40.5435 50.9817 36.2148 48.417L35.4219 47.96C33.5455 46.9041 31.493 45.9131 29.2627 44.9883L29.2549 44.9854L29.2471 44.9814C26.6796 43.8903 24.0802 42.7674 21.4492 41.6123L21.4307 41.6045L21.4121 41.5957C18.7088 40.3429 16.2216 38.9511 13.9541 37.4189V37.4199C8.52029 33.845 5.75693 28.6689 5.75684 22.1172C5.75684 17.1074 7.40911 12.8853 10.7773 9.62793L11.1084 9.31543C14.7542 5.90299 20.033 4.37305 26.5732 4.37305ZM87.0049 4.54883L107.229 61.2393L123.746 14.1582L123.771 14.0859L123.803 14.0156C124.396 12.6666 124.689 11.2763 124.689 9.8291C124.689 8.64826 124.411 7.90373 124.013 7.4082L123.835 7.21094L122.204 5.58008L124.049 4.19629L124.817 3.62109L126.205 2.58008L127.432 3.80664C129.068 5.44292 129.841 7.54206 129.841 9.9248C129.841 11.7843 129.438 13.6393 128.676 15.4785L111.499 74.3252L111.079 75.7646H100.007L99.6484 74.7568L99.6064 74.7529L99.4248 74.126L92.5186 54.6445H67.2139L58.6152 74.5576L58.0947 75.7646H52.5986L53.7881 72.9795L80.8174 9.69824L80.8057 9.65625L81.1221 8.9873L82.4922 5.7793L82.7969 5.06543L83.0312 4.95898L83.3135 4.36426L85.3818 0L87.0049 4.54883ZM141.102 74.7793C141.295 74.8751 141.49 74.9684 141.687 75.0596L141.101 74.7783C140.907 74.6826 140.715 74.5847 140.524 74.4844L141.102 74.7793ZM156.737 12.7891C150.986 12.7891 146.25 15.3003 142.423 20.5996C138.676 25.8769 136.657 33.8386 136.657 44.7725C136.657 55.7571 138.598 63.3472 142.104 67.9443L142.438 68.3701C145.916 72.705 150.405 74.8369 156.065 74.8369C161.886 74.8368 166.614 72.3212 170.371 67.0381L170.374 67.0342L170.727 66.5254C174.319 61.1886 176.241 53.4118 176.241 42.9482C176.241 35.6374 174.761 29.6968 172.648 25.1357C171.825 24.2125 171.329 23.1092 170.998 22.0381C170.486 21.1997 169.955 20.4254 169.412 19.7158L169.407 19.709L169.402 19.7031C167.279 16.884 166.345 15.4163 164.316 14.3984L163.896 14.2002C161.783 13.27 159.407 12.7891 156.737 12.7891ZM25.3984 73.8389C25.6401 73.8465 25.883 73.8517 26.127 73.8555L25.3984 73.8379C25.1571 73.8303 24.9168 73.821 24.6777 73.8096L25.3984 73.8389ZM27.9023 73.8496C27.9669 73.8483 28.0314 73.8463 28.0957 73.8447C28.0314 73.8463 27.9669 73.8483 27.9023 73.8496ZM23.2559 73.7188C23.4904 73.7378 23.7261 73.7543 23.9629 73.7695L23.2559 73.7178C23.021 73.6987 22.7873 73.6782 22.5547 73.6553L23.2559 73.7188ZM20.4922 73.3984C20.7179 73.4328 20.9449 73.4646 21.1729 73.4951L20.4922 73.3975C20.2665 73.3632 20.0418 73.3272 19.8184 73.2891L20.4922 73.3984ZM18.4912 73.0381C18.7101 73.0838 18.9302 73.127 19.1514 73.1689L18.4912 73.0371C18.2723 72.9914 18.0545 72.9441 17.8379 72.8945L18.4912 73.0381ZM15.917 72.3975C16.1271 72.4585 16.3385 72.517 16.5508 72.5742L15.917 72.3965C15.7072 72.3355 15.4985 72.2728 15.291 72.208L15.917 72.3975ZM11.0928 70.5674C11.2849 70.659 11.4784 70.7482 11.6729 70.8359L11.0928 70.5664C10.901 70.475 10.71 70.3823 10.5205 70.2871L11.0928 70.5674ZM141.26 70.0869C141.327 70.1666 141.397 70.244 141.465 70.3223C141.393 70.2393 141.319 70.1568 141.248 70.0723L141.26 70.0869ZM134.252 69.834C134.399 69.9884 134.55 70.1389 134.701 70.2871C134.544 70.1331 134.389 69.976 134.235 69.8154L134.252 69.834ZM38.0684 69.8926C38.1338 69.8548 38.1997 69.8178 38.2646 69.7793L38.2754 69.7725C38.2068 69.8132 38.1375 69.8526 38.0684 69.8926ZM45.1982 67.6748C45.0582 67.8286 44.9168 67.9795 44.7734 68.127C45.0679 67.8241 45.3555 67.5082 45.6357 67.1787L45.1982 67.6748ZM132.414 67.6035C132.453 67.6573 132.49 67.7114 132.529 67.7646C132.49 67.7114 132.453 67.6573 132.414 67.6035ZM132.046 67.0742C132.076 67.119 132.106 67.1636 132.137 67.208C132.106 67.1636 132.076 67.119 132.046 67.0742ZM44.4834 59.8574C44.4904 59.7573 44.4987 59.6569 44.5039 59.5557V59.543C44.4986 59.6484 44.4907 59.7532 44.4834 59.8574ZM261.544 53.2373H283.029L273.379 25.9482L261.544 53.2373ZM69.3311 49.6846H90.8145L81.165 22.3965L69.3311 49.6846ZM47.6494 47.0859C47.8753 47.5615 48.0785 48.061 48.2607 48.584L48.0723 48.0684C47.9412 47.7299 47.8001 47.4022 47.6494 47.085V47.0859ZM134.68 46.8252C134.682 46.912 134.685 46.9986 134.688 47.085C134.677 46.6638 134.668 46.2381 134.663 45.8076L134.68 46.8252ZM126.707 43.8965C126.705 43.993 126.703 44.0896 126.701 44.1865C126.703 44.0896 126.705 43.993 126.707 43.8965ZM126.749 42.6006C126.745 42.7055 126.74 42.8106 126.736 42.916C126.74 42.8106 126.745 42.7055 126.749 42.6006ZM215.005 12.8848C211.912 12.8848 208.675 13.0448 205.293 13.3643V42.3887H217.453C221.464 42.2101 224.218 40.7913 226.041 38.3086C227.939 35.7242 229.037 31.7061 229.037 25.957C229.037 21.4625 227.805 18.3438 225.626 16.2686L225.617 16.2607L225.608 16.252C223.425 14.1208 220.013 12.8848 215.005 12.8848ZM126.814 41.3379C126.809 41.4266 126.804 41.5154 126.799 41.6045C126.804 41.5154 126.809 41.4266 126.814 41.3379ZM130.459 25.873C130.438 25.9176 130.417 25.9621 130.396 26.0068C130.417 25.9621 130.438 25.9176 130.459 25.873ZM130.789 25.2002C130.722 25.3315 130.657 25.4638 130.592 25.5967C130.657 25.4638 130.722 25.3315 130.789 25.2002ZM131.228 24.3721C131.168 24.4803 131.109 24.5889 131.051 24.6982C131.109 24.5889 131.168 24.4803 131.228 24.3721ZM230.785 22.5254C230.858 22.9888 230.914 23.4657 230.955 23.9561L230.909 23.4697C230.875 23.1486 230.834 22.8335 230.785 22.5244V22.5254ZM131.438 23.9951C131.394 24.074 131.349 24.1529 131.305 24.2324C131.349 24.153 131.394 24.074 131.438 23.9951ZM131.667 23.5986C131.626 23.6674 131.586 23.7364 131.546 23.8057C131.586 23.7364 131.626 23.6674 131.667 23.5986ZM131.939 23.1475C131.891 23.2256 131.843 23.304 131.796 23.3828C131.843 23.304 131.891 23.2256 131.939 23.1475ZM132.237 22.6748C132.182 22.7603 132.128 22.8463 132.073 22.9326C132.128 22.8463 132.182 22.7603 132.237 22.6748ZM132.504 22.2686C132.443 22.3602 132.382 22.4523 132.321 22.5449C132.382 22.4523 132.443 22.3602 132.504 22.2686ZM132.764 21.8877C132.699 21.981 132.634 22.0746 132.57 22.1689C132.634 22.0746 132.699 21.981 132.764 21.8877ZM133.096 21.4209C133.012 21.536 132.929 21.6518 132.847 21.7686C132.929 21.6518 133.012 21.536 133.096 21.4209ZM133.352 21.0752C133.275 21.1764 133.2 21.2783 133.125 21.3809C133.2 21.2783 133.275 21.1764 133.352 21.0752ZM133.665 20.667C133.595 20.756 133.526 20.8454 133.457 20.9355C133.526 20.8454 133.595 20.756 133.665 20.667ZM133.9 20.3711C133.843 20.4426 133.785 20.5138 133.728 20.5859C133.785 20.5138 133.843 20.4426 133.9 20.3711ZM134.113 20.1094C134.101 20.1242 134.089 20.1395 134.077 20.1543C134.114 20.1097 134.151 20.0658 134.188 20.0215L134.113 20.1094ZM229.615 18.5107C229.665 18.6201 229.714 18.7303 229.762 18.8418C229.667 18.6188 229.567 18.4005 229.462 18.1865L229.615 18.5107ZM136.062 18.002C135.971 18.0919 135.88 18.183 135.789 18.2744C135.88 18.183 135.971 18.0919 136.062 18.002ZM136.426 17.6504C136.364 17.709 136.304 17.7689 136.242 17.8281C136.304 17.7689 136.364 17.709 136.426 17.6504ZM136.876 17.2314C136.797 17.3036 136.718 17.3769 136.64 17.4502C136.718 17.377 136.797 17.3036 136.876 17.2314ZM137.335 16.8232C137.22 16.9241 137.105 17.0259 136.99 17.1289C137.105 17.0259 137.22 16.9241 137.335 16.8232ZM137.76 16.459C137.639 16.5603 137.519 16.662 137.399 16.7656C137.519 16.662 137.639 16.5603 137.76 16.459ZM228.375 16.3818L228.167 16.1055C228.12 16.0445 228.071 15.9847 228.022 15.9248C228.143 16.0742 228.261 16.2262 228.375 16.3818ZM138.188 16.1055C138.076 16.1965 137.964 16.2888 137.853 16.3818C137.964 16.2889 138.076 16.1965 138.188 16.1055ZM138.608 15.7725C138.508 15.8503 138.409 15.9294 138.31 16.0088C138.409 15.9294 138.508 15.8503 138.608 15.7725ZM139.059 15.4287C138.96 15.502 138.863 15.5767 138.766 15.6514C138.863 15.5767 138.96 15.502 139.059 15.4287ZM139.534 15.082C139.414 15.1676 139.296 15.2551 139.177 15.3428C139.296 15.2551 139.414 15.1676 139.534 15.082ZM139.985 14.7666C139.867 14.8477 139.749 14.9306 139.632 15.0137C139.749 14.9306 139.867 14.8477 139.985 14.7666ZM167.781 14.4775C167.903 14.5983 168.022 14.7218 168.14 14.8486L167.781 14.4766C167.66 14.3557 167.536 14.2379 167.41 14.123L167.781 14.4775ZM140.523 14.4082C140.369 14.5087 140.215 14.6111 140.062 14.7148C140.215 14.6111 140.369 14.5087 140.523 14.4082ZM141.371 13.8799C141.277 13.9361 141.184 13.9934 141.091 14.0508C141.184 13.9934 141.277 13.9361 141.371 13.8799ZM141.834 13.6084C141.753 13.655 141.672 13.7025 141.591 13.75C141.672 13.7025 141.753 13.655 141.834 13.6084ZM126.095 13.6084L126.19 13.3018C126.203 13.2587 126.213 13.215 126.226 13.1719C126.184 13.3178 126.142 13.4635 126.095 13.6084ZM142.22 13.3906C142.155 13.4261 142.092 13.463 142.027 13.499C142.121 13.4465 142.214 13.3942 142.309 13.3428L142.22 13.3906ZM147.905 12.9482C147.749 13.0327 147.595 13.1205 147.441 13.21C147.759 13.0254 148.08 12.8509 148.406 12.6875L147.905 12.9482ZM165.747 12.9014C165.909 12.9957 166.066 13.0932 166.218 13.1934L166.182 13.168C166.041 13.0761 165.896 12.988 165.747 12.9014ZM126.261 13.0439C126.287 12.9461 126.313 12.8483 126.337 12.75C126.313 12.8482 126.287 12.9462 126.261 13.0439ZM145.569 11.833C145.338 11.922 145.109 12.0135 144.881 12.1084L145.57 11.833C145.801 11.744 146.034 11.6573 146.268 11.5742L145.569 11.833ZM163.536 11.9062C163.455 11.8772 163.373 11.8492 163.291 11.8213C163.373 11.8492 163.455 11.8772 163.536 11.9062ZM163.164 11.7773C163.079 11.749 162.993 11.7215 162.907 11.6943C162.993 11.7215 163.079 11.749 163.164 11.7773ZM151.557 11.4717C151.375 11.5223 151.194 11.5765 151.015 11.6328L151.557 11.4727C151.738 11.422 151.921 11.3741 152.105 11.3291L151.557 11.4717ZM160.977 11.1963L160.914 11.1836C160.842 11.1692 160.769 11.1561 160.696 11.1426C160.79 11.16 160.883 11.1775 160.977 11.1963ZM160.656 11.1348C160.445 11.0958 160.231 11.0616 160.017 11.0293C160.231 11.0617 160.445 11.0958 160.656 11.1348ZM155.706 10.8145C155.618 10.8187 155.53 10.8237 155.442 10.8291C155.53 10.8237 155.618 10.8188 155.706 10.8145ZM156.188 10.7969C156.131 10.7983 156.074 10.7998 156.017 10.8018C156.074 10.7998 156.131 10.7984 156.188 10.7969ZM167.146 10.7197L165.691 10.5508C165.627 10.5435 165.562 10.5367 165.497 10.5293C166.119 10.5995 166.68 10.6644 167.146 10.7197ZM17.9736 9.81836C17.8746 9.87967 17.7775 9.94335 17.6807 10.0068C17.7775 9.94336 17.8746 9.87966 17.9736 9.81836ZM215.005 9.9248C213.581 9.92481 212.103 9.9407 210.571 9.97266L212.829 9.93652C213.568 9.92853 214.293 9.92481 215.005 9.9248ZM18.4111 9.55859C18.3066 9.61803 18.2038 9.6795 18.1016 9.74121C18.2038 9.67952 18.3066 9.61801 18.4111 9.55859ZM18.8818 9.30371C18.79 9.3514 18.6995 9.40086 18.6094 9.4502C18.6995 9.40088 18.79 9.35138 18.8818 9.30371ZM19.3662 9.06348C19.2622 9.11267 19.1596 9.16366 19.0576 9.21484C19.1596 9.16368 19.2622 9.11266 19.3662 9.06348ZM19.8584 8.84082C19.7542 8.88564 19.6511 8.93182 19.5488 8.97852C19.6511 8.93183 19.7542 8.88563 19.8584 8.84082ZM20.4092 8.61719C20.2879 8.66402 20.1677 8.71151 20.0488 8.76074C20.1676 8.71151 20.2879 8.66403 20.4092 8.61719ZM20.6855 8.51172C20.6403 8.52828 20.5957 8.54659 20.5508 8.56348C20.7112 8.50321 20.8734 8.44384 21.0381 8.3877L20.6855 8.51172ZM22.583 7.93848C22.4699 7.96637 22.3574 7.99387 22.2461 8.02344C22.3574 7.99388 22.4699 7.96637 22.583 7.93848ZM23.2441 7.78711C23.1337 7.81053 23.0239 7.83347 22.915 7.8584C23.0239 7.83348 23.1337 7.81052 23.2441 7.78711ZM23.9287 7.65332C23.8055 7.67542 23.6829 7.69684 23.5615 7.7207C23.6829 7.69685 23.8055 7.67541 23.9287 7.65332ZM24.6104 7.54102C24.4911 7.55881 24.3725 7.57634 24.2549 7.5957C24.3725 7.57635 24.4911 7.5588 24.6104 7.54102ZM27.1055 7.28809C26.8917 7.3001 26.6801 7.31479 26.4707 7.33105C26.7021 7.3131 26.9361 7.29793 27.1729 7.28516L27.1055 7.28809ZM33.7412 6.83203C34.1419 6.88305 34.5429 6.93852 34.9443 6.99805L33.7422 6.83203C33.3414 6.781 32.941 6.73392 32.541 6.69141L33.7412 6.83203ZM126.665 5.98145C126.597 5.88755 126.526 5.79567 126.453 5.70508C126.527 5.79559 126.597 5.88756 126.665 5.98145ZM130.97 24.8516C130.909 24.9672 130.848 25.0832 130.789 25.2002C130.848 25.0832 130.909 24.9672 130.97 24.8516ZM140.897 14.1689C140.772 14.2475 140.648 14.3275 140.523 14.4082C140.648 14.3275 140.772 14.2475 140.897 14.1689ZM163.852 12.0225L163.791 11.999C163.721 11.9728 163.65 11.9482 163.58 11.9229C163.671 11.9556 163.761 11.9883 163.852 12.0225Z" fill="#7698BD"/>
</g>
<defs>
<filter id="filter0_d_41_2" x="0" y="0" width="308.632" height="87.7969" filterUnits="userSpaceOnUse" color-interpolation-filters="sRGB">
<feFlood flood-opacity="0" result="BackgroundImageFix"/>
<feColorMatrix in="SourceAlpha" type="matrix" values="0 0 0 0 0 0 0 0 0 0 0 0 0 0 0 0 0 0 127 0" result="hardAlpha"/>
<feOffset dy="4"/>
<feGaussianBlur stdDeviation="2"/>
<feComposite in2="hardAlpha" operator="out"/>
<feColorMatrix type="matrix" values="0 0 0 0 0 0 0 0 0 0 0 0 0 0 0 0 0 0 0.25 0"/>
<feBlend mode="normal" in2="BackgroundImageFix" result="effect1_dropShadow_41_2"/>
<feBlend mode="normal" in="SourceGraphic" in2="effect1_dropShadow_41_2" result="shape"/>
</filter>
</defs>
</svg>
